<svg width="192" height="48" viewBox="0 0 192 48" fill="none" xmlns="http://www.w3.org/2000/svg">
<g id="crawless-logo">
<path id="Vector" d="M25.519 47.9132C24.9982 47.9132 24.5642 48 24.0434 48C10.7631 48 0 37.2369 0 23.9566C0 10.7631 10.7631 0 23.9566 0C24.4774 0 24.9982 0 25.4322 0.0867993V47.9132H25.519ZM37.4973 25.7794C37.4973 19.2694 42.1845 15.5371 47.4792 15.5371C49.9964 15.5371 51.9928 16.4919 53.2948 17.7939L51.038 20.6582C49.9964 19.7034 48.9548 19.2694 47.6528 19.2694C44.4412 19.2694 42.2713 21.8734 42.2713 25.7794C42.2713 29.6854 44.4412 32.2025 47.566 32.2025C49.2152 32.2025 50.5172 31.4213 51.6456 30.5533L53.5552 33.4177C51.7324 35.0669 49.302 35.9349 47.0452 35.9349C41.6637 35.9349 37.4973 32.2025 37.4973 25.7794ZM57.9819 35.5009V16.0579H61.8011L62.1483 19.5298H62.3219C63.7107 17.0127 65.8807 15.6239 67.9638 15.6239C69.0054 15.6239 69.613 15.7107 70.2206 16.0579L69.4394 19.877C68.745 19.7034 68.2242 19.5298 67.3562 19.5298C65.7939 19.5298 63.8843 20.5714 62.6691 23.5226V35.4141H57.9819V35.5009ZM71.6962 30.2929C71.6962 26.1266 75.255 23.9566 83.4141 23.0886C83.4141 21.0054 82.4593 19.2694 79.8553 19.2694C77.859 19.2694 76.0362 20.1374 74.3002 21.179L72.5642 18.141C74.7342 16.7523 77.5118 15.6239 80.7233 15.6239C85.6709 15.6239 88.1013 18.575 88.1013 24.0434V35.5877H84.1953L83.8481 33.4177H83.7613C82.0253 34.8933 79.9421 36.0217 77.5986 36.0217C74.1266 35.9349 71.6962 33.6781 71.6962 30.2929ZM76.2098 29.9457C76.2098 31.6817 77.425 32.4629 79.0741 32.4629C80.7233 32.4629 81.9385 31.6817 83.4141 30.2929V25.953C78.0326 26.5606 76.2098 27.9494 76.2098 29.9457ZM97.5624 35.5009L92.2676 16.0579H96.9548L99.2984 26.2134C99.7324 28.0362 99.9928 29.8589 100.34 31.7685H100.514C100.861 29.8589 101.295 28.0362 101.729 26.2134L104.333 16.0579H108.586L111.19 26.2134C111.711 28.0362 112.058 29.8589 112.492 31.7685H112.665C113.013 29.8589 113.36 28.0362 113.707 26.2134L116.051 16.0579H120.391L115.356 35.5009H109.801L107.458 26.387C107.024 24.5642 106.676 22.7414 106.242 20.745H106.069C105.722 22.8282 105.374 24.651 104.854 26.4738L102.597 35.5009H97.5624ZM125.078 30.4665V7.46474H129.765V30.7269C129.765 31.8553 130.286 32.2025 130.807 32.2025C130.98 32.2025 131.154 32.2025 131.501 32.1157L132.109 35.5009C131.501 35.7613 130.72 35.9349 129.678 35.9349C126.293 35.9349 125.078 33.8517 125.078 30.4665ZM135.233 25.7794C135.233 19.443 139.747 15.5371 144.347 15.5371C149.729 15.5371 152.593 19.3562 152.593 24.7378C152.593 25.6058 152.506 26.387 152.42 26.9078H139.834C140.268 30.4665 142.524 32.4629 145.736 32.4629C147.472 32.4629 148.861 31.9421 150.336 31.0741L151.899 33.9385C149.989 35.1537 147.646 36.0217 145.128 36.0217C139.573 35.9349 135.233 32.2025 135.233 25.7794ZM139.747 24.0434H148.6C148.6 20.9186 147.298 19.0958 144.521 19.0958C142.177 19.0958 140.181 20.745 139.747 24.0434ZM155.631 33.2441L157.801 30.2929C159.537 31.6817 161.273 32.4629 163.269 32.4629C165.439 32.4629 166.394 31.5081 166.394 30.1193C166.394 28.4702 164.224 27.7758 162.141 26.9946C159.537 26.0398 156.586 24.5642 156.586 21.3526C156.586 17.9675 159.363 15.5371 163.79 15.5371C166.568 15.5371 168.738 16.6655 170.387 17.8807L168.217 20.6582C166.828 19.7034 165.439 19.009 163.877 19.009C161.881 19.009 160.926 19.9638 160.926 21.179C160.926 22.6546 162.922 23.349 165.092 24.0434C167.783 24.9982 170.821 26.3002 170.821 29.9457C170.821 33.2441 168.13 35.9349 163.096 35.9349C160.405 35.9349 157.541 34.8065 155.631 33.2441ZM173.599 33.2441L175.769 30.2929C177.505 31.6817 179.241 32.4629 181.237 32.4629C183.407 32.4629 184.362 31.5081 184.362 30.1193C184.362 28.4702 182.192 27.7758 180.109 26.9946C177.505 26.0398 174.553 24.5642 174.553 21.3526C174.553 17.9675 177.331 15.5371 181.758 15.5371C184.535 15.5371 186.705 16.6655 188.354 17.8807L186.184 20.6582C184.796 19.7034 183.407 19.009 181.844 19.009C179.848 19.009 178.893 19.9638 178.893 21.179C178.893 22.6546 180.89 23.349 183.06 24.0434C185.75 24.9982 188.788 26.3002 188.788 29.9457C188.788 33.2441 186.098 35.9349 181.063 35.9349C178.459 35.9349 175.595 34.8065 173.599 33.2441Z" fill="#3E3D4C"/>
</g>
</svg>
