<svg width="24" height="24" viewBox="0 0 24 24" fill="none" xmlns="http://www.w3.org/2000/svg">
<g id="bell">
<path id="Vector" d="M12 2C11.172 2 10.5 2.672 10.5 3.5V4.19531C7.91314 4.86209 5.99996 7.2048 5.99996 10V15H18V10C18 7.2048 16.0868 4.86209 13.5 4.19531V3.5C13.5 2.672 12.828 2 12 2ZM4.99996 17C4.86745 16.9981 4.73589 17.0226 4.61292 17.072C4.48995 17.1214 4.37803 17.1948 4.28366 17.2878C4.18929 17.3809 4.11435 17.4918 4.0632 17.614C4.01206 17.7363 3.98572 17.8675 3.98572 18C3.98572 18.1325 4.01206 18.2637 4.0632 18.386C4.11435 18.5082 4.18929 18.6191 4.28366 18.7122C4.37803 18.8052 4.48995 18.8786 4.61292 18.928C4.73589 18.9774 4.86745 19.0019 4.99996 19H10.2695C10.0934 19.3039 10.0004 19.6488 9.99996 20C9.99996 20.5304 10.2107 21.0391 10.5857 21.4142C10.9608 21.7893 11.4695 22 12 22C12.5304 22 13.0391 21.7893 13.4142 21.4142C13.7892 21.0391 14 20.5304 14 20C13.9989 19.6486 13.9052 19.3037 13.7285 19H19C19.1325 19.0019 19.264 18.9774 19.387 18.928C19.51 18.8786 19.6219 18.8052 19.7163 18.7122C19.8106 18.6191 19.8856 18.5082 19.9367 18.386C19.9879 18.2637 20.0142 18.1325 20.0142 18C20.0142 17.8675 19.9879 17.7363 19.9367 17.614C19.8856 17.4918 19.8106 17.3809 19.7163 17.2878C19.6219 17.1948 19.51 17.1214 19.387 17.072C19.264 17.0226 19.1325 16.9981 19 17H4.99996Z"/>
</g>
</svg>
