<svg width="16" height="16" viewBox="0 0 16 16" fill="none" xmlns="http://www.w3.org/2000/svg">
<g id="help">
<path id="Vector" d="M7.5 1C3.91797 1 1 3.91797 1 7.5C1 11.082 3.91797 14 7.5 14C11.082 14 14 11.082 14 7.5C14 3.91797 11.082 1 7.5 1ZM7.5 2C10.543 2 13 4.45703 13 7.5C13 10.543 10.543 13 7.5 13C4.45703 13 2 10.543 2 7.5C2 4.45703 4.45703 2 7.5 2ZM7.55859 4C6.34766 4.07031 5.35938 5.08594 5.35938 6.32031H6.35938C6.35938 5.50781 7.0625 4.87109 7.92188 5.01953C8.53516 5.125 9.01953 5.72656 9 6.35938C8.98438 6.91406 8.66016 7.26562 8.18359 7.47656C7.88672 7.60938 7.60547 7.73438 7.36719 7.98438C7.12891 8.23438 7 8.60547 7 9H8C8 8.77344 8.03125 8.73828 8.09375 8.67188C8.15234 8.60938 8.31641 8.51172 8.58594 8.39062C9.33203 8.06641 9.97266 7.35156 10 6.39062C10.0352 5.25391 9.21875 4.22656 8.08984 4.03125C7.91016 4.00391 7.73047 3.99219 7.55859 4ZM7 10V11H8V10H7Z" fill="#A3A3B1"/>
</g>
</svg>
