<svg xmlns="http://www.w3.org/2000/svg" width="16" height="16" viewBox="0 0 16 16" fill="none">
<path fill-rule="evenodd" clip-rule="evenodd" d="M14 4C14 3.05719 14 2.58579 13.7071 2.29289C13.4142 2 12.9428 2 12 2H3C2.05719 2 1.58579 2 1.29289 2.29289C1 2.58579 1 3.05719 1 4V5H14V4Z" fill="#81DED8"/>
<path fill-rule="evenodd" clip-rule="evenodd" d="M2 5H1V13C1 13.5523 1.44772 14 2 14H13C13.5523 14 14 13.5523 14 13V5H13V7H10V5H9V7H6V5H5V7H2V5ZM5 8H2V10H5V8ZM6 8H9V10H6V8ZM13 8H10V10H13V8ZM2 11H5V13H2V11ZM9 11H6V13H9V11ZM10 11H13V13H10V11Z" fill="#BAE7FF"/>
</svg>