<svg width="16" height="16" viewBox="0 0 16 16" fill="none" xmlns="http://www.w3.org/2000/svg">
<g id="collapse">
<path id="Vector" d="M13.0326 2.25742L9.99706 5.29301L9.9943 2.96453L8.99993 2.96453V6.50006C8.99716 6.77351 9.22366 7.00001 9.49711 6.99724L13.0354 7.00001L13.0326 6.00288L10.7042 6.00011L13.7398 2.96453L13.0326 2.25742ZM6.99446 2.96452H6.00009L5.99733 5.293L2.96174 2.25742L2.25464 2.96452L5.29023 6.00011L2.96175 6.00287L2.95898 7L6.49728 6.99724C6.77073 7 6.99722 6.77351 6.99446 6.50006V2.96452ZM13.0355 9L9.50272 9.00277C9.22926 9 9.00277 9.2265 9.00553 9.49995L9.00001 13.0355L10.0027 13.0382L10.0027 10.707L13.0382 13.7426L13.7454 13.0355L10.7098 9.9999L13.041 9.9999L13.0355 9ZM6.84533 9.14363C6.75141 9.05525 6.62712 9.00277 6.4973 9.00553L2.96453 9.00277L2.959 10.0027L5.29024 10.0027L2.25466 13.0382L2.96176 13.7454L5.99735 10.7098L5.99735 13.041L7.00001 13.0382L6.99448 9.50271C6.99724 9.36737 6.94476 9.23755 6.84533 9.14363Z" />
</g>
</svg>
