<svg width="16" height="16" viewBox="0 0 16 16" fill="none" xmlns="http://www.w3.org/2000/svg">
<g id="firebase">
<path id="Vector" d="M2.66663 12.3333L7.74463 2.81201C7.85163 2.61135 8.14096 2.61501 8.24263 2.81868L9.99996 6.33335L2.66663 12.3333Z" fill="#FF8616"/>
<path id="Vector_2" d="M2.66663 12.3307L4.51529 0.931023C4.56363 0.632689 4.96429 0.568023 5.10429 0.836023L8.66663 7.66402L2.66663 12.3307Z" fill="#FAAD14"/>
<path id="Vector_3" d="M2.66931 12.3286L2.73598 12.2763L8.57898 7.49598L6.93098 4.33731L2.66931 12.3286Z" fill="#FA541C"/>
<path id="Vector_4" d="M2.66663 12.3333L11.5553 3.76232C11.7416 3.58265 12.0526 3.68865 12.0906 3.94465L13.3333 12.3333L8.33329 15.2477C8.13029 15.3617 7.88263 15.3617 7.67963 15.2477L2.66663 12.3333Z" fill="#FFD666"/>
</g>
</svg>
