<svg width="16" height="16" viewBox="0 0 16 16" fill="none" xmlns="http://www.w3.org/2000/svg">
<g id="mongo">
<path id="Vector" d="M14 5.76666C14 12.6 8 14.6667 8 14.6667C8 14.6667 2 12.6 2 5.76666C2 4.93333 2.06667 4.23333 2.13333 3.66666C2.23333 2.83333 2.8 2.16666 3.6 1.96666C4.63333 1.66666 6.26667 1.33333 8 1.33333C9.73333 1.33333 11.3667 1.66666 12.4333 1.96666C13.2333 2.16666 13.8 2.86666 13.9 3.66666C13.9333 4.23333 14 4.96666 14 5.76666Z" fill="#542617"/>
<path id="Vector_2" d="M8 2.05C9.63333 2.05 11.1667 2.4 12.1667 2.68C12.5667 2.785 12.8333 3.135 12.9 3.59C12.9667 4.255 13 4.955 13 5.655C13 11.115 9.16667 13.32 8 13.845C6.83333 13.285 3 11.08 3 5.655C3 4.955 3.03333 4.255 3.1 3.59C3.13333 3.135 3.43333 2.785 3.83333 2.68C4.83333 2.4 6.36667 2.05 8 2.05ZM8 1C6.26667 1 4.63333 1.35 3.56667 1.665C2.8 1.875 2.2 2.61 2.13333 3.45C2.06667 4.045 2 4.815 2 5.655C2 12.83 8 15 8 15C8 15 14 12.83 14 5.655C14 4.78 13.9333 4.045 13.8667 3.45C13.7667 2.575 13.2 1.875 12.4 1.665C11.3667 1.35 9.73333 1 8 1Z" fill="#6AC43E"/>
<path id="Vector_3" d="M7.5 9.33333H8.5V12H7.5V9.33333Z" fill="#FAFAFA"/>
<path id="Vector_4" d="M8 3C8 3 5 4.73913 5 7.52174C5 9.33043 6.65 10.4783 7.5 11L8 9.95652L8.5 11C9.35 10.4783 11 9.33043 11 7.52174C11 4.73913 8 3 8 3Z" fill="#6AC43E"/>
<path id="Vector_5" d="M8 3C8 3 5 4.73913 5 7.52174C5 9.33043 6.65 10.4783 7.5 11L8 9.95652V3Z" fill="#D3F261"/>
</g>
</svg>
