<svg width="16" height="16" viewBox="0 0 16 16" fill="none" xmlns="http://www.w3.org/2000/svg">
<mask id="mask0_7123_38630" style="mask-type:alpha" maskUnits="userSpaceOnUse" x="0" y="0" width="16" height="16">
<path d="M12.5 1C11.125 1 10 2.125 10 3.5C10 3.67188 10.0195 3.83594 10.0508 4L5.51953 6.03906C5.0625 5.41406 4.32812 5 3.5 5C2.125 5 1 6.125 1 7.5C1 8.875 2.125 10 3.5 10C4.33203 10 5.07422 9.58203 5.52734 8.94922L10.0625 10.9648C10.0234 11.1367 10 11.3164 10 11.5C10 12.875 11.125 14 12.5 14C13.875 14 15 12.875 15 11.5C15 10.125 13.875 9 12.5 9C11.668 9 10.9258 9.41797 10.4727 10.0508L5.9375 8.03906C5.97656 7.86328 6 7.68359 6 7.5C6 7.3125 5.97656 7.12891 5.9375 6.95312L10.4453 4.91406C10.8984 5.57031 11.6523 6 12.5 6C13.875 6 15 4.875 15 3.5C15 2.125 13.875 1 12.5 1ZM12.5 2C13.3359 2 14 2.66406 14 3.5C14 4.33594 13.3359 5 12.5 5C11.6641 5 11 4.33594 11 3.5C11 2.66406 11.6641 2 12.5 2ZM3.5 6C4.33594 6 5 6.66406 5 7.5C5 8.33594 4.33594 9 3.5 9C2.66406 9 2 8.33594 2 7.5C2 6.66406 2.66406 6 3.5 6ZM12.5 10C13.3359 10 14 10.6641 14 11.5C14 12.3359 13.3359 13 12.5 13C11.6641 13 11 12.3359 11 11.5C11 10.6641 11.6641 10 12.5 10Z" fill="#A3A3B1"/>
</mask>
<g mask="url(#mask0_7123_38630)">
<rect width="16" height="16" fill="#A3A3B1"/>
</g>
</svg>
