<svg xmlns="http://www.w3.org/2000/svg" width="16" height="17" viewBox="0 0 16 17" fill="none">
<path d="M7.5 2.5C3.91406 2.5 1 5.41406 1 9C1 11.2578 2.15625 13.25 3.91016 14.418L4.03516 14.5H10.9648L11.0898 14.418C12.8438 13.25 14 11.2578 14 9C14 5.41406 11.0859 2.5 7.5 2.5ZM7.5 3.5C10.543 3.5 13 5.95703 13 9C13 10.875 12.0469 12.5078 10.6133 13.5H4.38281C2.95312 12.5078 2 10.875 2 9C2 5.95703 4.45703 3.5 7.5 3.5ZM10.4883 5.49609C10.3594 5.5 10.2383 5.55469 10.1445 5.64844L7.14844 8.64844C7.01562 8.77344 6.96484 8.95703 7.00781 9.13281C7.05469 9.30859 7.19141 9.44531 7.36719 9.49219C7.54297 9.53516 7.72656 9.48438 7.85156 9.35156L10.8555 6.35156C11 6.21094 11.043 5.99219 10.9648 5.80078C10.8828 5.61328 10.6953 5.49219 10.4883 5.49609Z" fill="#F95E49"/>
<path d="M4.21888 7.10565C3.87868 6.90923 3.75812 6.46965 4.00564 6.1646C4.35083 5.73919 4.77211 5.3788 5.25 5.10289C5.72789 4.82697 6.25064 4.64234 6.79166 4.5561C7.17959 4.49426 7.5 4.81846 7.5 5.21129C7.5 5.60413 7.17741 5.91443 6.79502 6.00442C6.50369 6.07298 6.22268 6.18397 5.96129 6.33488C5.6999 6.48579 5.46328 6.67366 5.25824 6.89168C4.98911 7.17784 4.55909 7.30206 4.21888 7.10565Z" fill="#71717E"/>
<path d="M11.2677 8.60149C11.6583 8.56017 12.0144 8.8447 11.9938 9.23699C11.9649 9.78407 11.8363 10.3233 11.6122 10.8276C11.388 11.3319 11.074 11.7887 10.6872 12.1767C10.4099 12.455 9.96008 12.3813 9.72897 12.0637C9.49785 11.746 9.57616 11.3053 9.83242 11.0076C10.0277 10.7807 10.1896 10.5257 10.3122 10.2498C10.4348 9.97403 10.5156 9.68291 10.5531 9.38599C10.6024 8.99625 10.877 8.64281 11.2677 8.60149Z" fill="#FFC2BA"/>
<path d="M5.27117 12.0638C5.04007 12.3814 4.59025 12.4551 4.31292 12.1769C3.92616 11.7889 3.61206 11.332 3.38792 10.8278C3.16378 10.3235 3.03513 9.78427 3.00625 9.23718C2.98555 8.84489 3.34163 8.56035 3.73229 8.60165C4.12295 8.64296 4.39761 8.99639 4.4469 9.38612C4.48445 9.68304 4.56528 9.97416 4.68787 10.25C4.81046 10.5258 4.97241 10.7808 5.16766 11.0077C5.42394 11.3054 5.50227 11.7461 5.27117 12.0638Z" fill="#71717E"/>
</svg>