<svg width="16" height="16" viewBox="0 0 16 16" fill="none" xmlns="http://www.w3.org/2000/svg">
<g id="tree">
<path id="Vector" d="M2.5 2C2.36739 2 2.24021 2.05268 2.14645 2.14645C2.05268 2.24021 2 2.36739 2 2.5C2 2.63261 2.05268 2.75979 2.14645 2.85355C2.24021 2.94732 2.36739 3 2.5 3C2.63261 3 2.75979 2.94732 2.85355 2.85355C2.94732 2.75979 3 2.63261 3 2.5C3 2.36739 2.94732 2.24021 2.85355 2.14645C2.75979 2.05268 2.63261 2 2.5 2ZM8.88477 3C8.41668 3 8 3.37704 8 3.86328V5H3V4H2V10.5C2 11.3225 2.67747 12 3.5 12H8V13.166C8 13.6634 8.43849 13.998 8.88477 13.998H13.1152C13.5614 13.998 14.002 13.6616 14.002 13.166V10.832C14.002 10.3346 13.5615 10 13.1152 10H10.8672L10.5527 9.44727C10.3931 9.16181 10.0927 9 9.7793 9H8.88477C8.41668 9 8 9.37704 8 9.86328V11H3.5C3.21853 11 3 10.7815 3 10.5V6H8V7.16797C8 7.66287 8.43798 7.99919 8.88477 7.99805H13.1152C13.5614 7.99805 14.002 7.66161 14.002 7.16602V4.83203C14.002 4.33463 13.5615 4 13.1152 4H10.8672L10.5527 3.44727C10.3931 3.16181 10.0927 3 9.7793 3H8.88477ZM9 4H9.7168L10.0664 4.61523L10.2461 5H10.5645H13.002V6.99805H9V4ZM9 10H9.7168L10.0664 10.6152L10.2461 11H10.5645H13.002V12.998H9V10Z" />
</g>
</svg>
