<svg width="16" height="16" viewBox="0 0 16 16" fill="none" xmlns="http://www.w3.org/2000/svg">
<g id="target">
<path id="Vector" d="M7 0V2.02344C4.36719 2.26562 2.26562 4.36719 2.02344 7H0V8H2.02344C2.26562 10.6328 4.36719 12.7344 7 12.9727V15H8V12.9727C10.6328 12.7344 12.7344 10.6328 12.9727 8H15V7H12.9727C12.7344 4.36719 10.6328 2.26562 8 2.02344V0H7ZM7.5 3C9.99219 3 12 5.00781 12 7.5C12 9.99219 9.99219 12 7.5 12C5.00781 12 3 9.99219 3 7.5C3 5.00781 5.00781 3 7.5 3ZM7.5 6C6.67188 6 6 6.67188 6 7.5C6 8.32812 6.67188 9 7.5 9C8.32812 9 9 8.32812 9 7.5C9 6.67188 8.32812 6 7.5 6Z" fill="#A3A3B1"/>
</g>
</svg>
