<svg width="16" height="16" viewBox="0 0 16 16" fill="none" xmlns="http://www.w3.org/2000/svg">
<rect width="16" height="16" rx="2" fill="#3E3D4C"/>
<path d="M8.29297 8.21191H6.39355V7.44531H8.29297C8.66081 7.44531 8.95866 7.38672 9.18652 7.26953C9.41439 7.15234 9.5804 6.98958 9.68457 6.78125C9.79199 6.57292 9.8457 6.33529 9.8457 6.06836C9.8457 5.82422 9.79199 5.59473 9.68457 5.37988C9.5804 5.16504 9.41439 4.99251 9.18652 4.8623C8.95866 4.72884 8.66081 4.66211 8.29297 4.66211H6.61328V11H5.6709V3.89062H8.29297C8.83008 3.89062 9.28418 3.9834 9.65527 4.16895C10.0264 4.35449 10.3079 4.61165 10.5 4.94043C10.6921 5.26595 10.7881 5.63867 10.7881 6.05859C10.7881 6.51432 10.6921 6.90332 10.5 7.22559C10.3079 7.54785 10.0264 7.79362 9.65527 7.96289C9.28418 8.12891 8.83008 8.21191 8.29297 8.21191Z" fill="#A3A3B1"/>
</svg>
