<svg width="24" height="16" viewBox="0 0 24 16" fill="none" xmlns="http://www.w3.org/2000/svg">
<rect width="24" height="16" rx="2" fill="#3E3D4C"/>
<path d="M8.19141 3.89062V11H7.24902V3.89062H8.19141ZM11.1699 7.08887V7.86035H7.98633V7.08887H11.1699ZM11.6533 3.89062V4.66211H7.98633V3.89062H11.6533ZM13.6846 7.61621L12.9619 7.43066L13.3184 3.89062H16.9658V4.72559H14.085L13.8701 6.65918C14.0003 6.58431 14.1647 6.51432 14.3633 6.44922C14.5651 6.38411 14.7962 6.35156 15.0566 6.35156C15.3854 6.35156 15.68 6.40853 15.9404 6.52246C16.2008 6.63314 16.4222 6.79264 16.6045 7.00098C16.79 7.20931 16.9316 7.45996 17.0293 7.75293C17.127 8.0459 17.1758 8.37305 17.1758 8.73438C17.1758 9.07617 17.1286 9.3903 17.0342 9.67676C16.943 9.96322 16.8047 10.2139 16.6191 10.4287C16.4336 10.6403 16.1992 10.8047 15.916 10.9219C15.6361 11.0391 15.3057 11.0977 14.9248 11.0977C14.6383 11.0977 14.3665 11.0586 14.1094 10.9805C13.8555 10.8991 13.6276 10.777 13.4258 10.6143C13.2272 10.4482 13.0645 10.2432 12.9375 9.99902C12.8138 9.75163 12.7357 9.46191 12.7031 9.12988H13.5625C13.6016 9.39681 13.6797 9.62142 13.7969 9.80371C13.9141 9.986 14.0671 10.1243 14.2559 10.2188C14.4479 10.3099 14.6709 10.3555 14.9248 10.3555C15.1396 10.3555 15.3301 10.318 15.4961 10.2432C15.6621 10.1683 15.8021 10.0609 15.916 9.9209C16.0299 9.78092 16.1162 9.61165 16.1748 9.41309C16.2367 9.21452 16.2676 8.99154 16.2676 8.74414C16.2676 8.51953 16.2367 8.3112 16.1748 8.11914C16.113 7.92708 16.0202 7.75944 15.8965 7.61621C15.776 7.47298 15.6279 7.3623 15.4521 7.28418C15.2764 7.2028 15.0745 7.16211 14.8467 7.16211C14.5439 7.16211 14.3145 7.2028 14.1582 7.28418C14.0052 7.36556 13.8473 7.47624 13.6846 7.61621Z" fill="#A3A3B1"/>
</svg>
