<svg width="16" height="16" viewBox="0 0 16 16" fill="none" xmlns="http://www.w3.org/2000/svg">
<g id="Group 12">
<rect id="Rectangle 67" width="16" height="16" rx="2" fill="#3E3D4C"/>
<g id="Group 2">
<path id="Rectangle 75" d="M3.5 5C3.5 4.17157 4.17157 3.5 5 3.5C5.82843 3.5 6.5 4.17157 6.5 5V6.5H5C4.17157 6.5 3.5 5.82843 3.5 5Z" stroke="#A3A3B1"/>
<path id="Rectangle 77" d="M3.5 11C3.5 10.1716 4.17157 9.5 5 9.5H6.5V11C6.5 11.8284 5.82843 12.5 5 12.5C4.17157 12.5 3.5 11.8284 3.5 11Z" stroke="#A3A3B1"/>
<rect id="Rectangle 79" x="6.5" y="6.5" width="3" height="3" stroke="#A3A3B1"/>
<path id="Rectangle 78" d="M9.5 9.5H11C11.8284 9.5 12.5 10.1716 12.5 11C12.5 11.8284 11.8284 12.5 11 12.5C10.1716 12.5 9.5 11.8284 9.5 11V9.5Z" stroke="#A3A3B1"/>
<path id="Rectangle 76" d="M9.5 5C9.5 4.17157 10.1716 3.5 11 3.5C11.8284 3.5 12.5 4.17157 12.5 5C12.5 5.82843 11.8284 6.5 11 6.5H9.5V5Z" stroke="#A3A3B1"/>
</g>
</g>
</svg>
